<svg width="46" height="48" viewBox="0 0 46 48" fill="none" xmlns="http://www.w3.org/2000/svg">
<g clip-path="url(#clip0_2128_1480)">
<path d="M4.0295 12.3528C4.3109 12.3573 4.59038 12.3058 4.85167 12.2012C5.11295 12.0966 5.35081 11.941 5.5514 11.7436C5.75198 11.5462 5.91128 11.3108 6.02002 11.0513C6.12875 10.7917 6.18475 10.5131 6.18475 10.2316C6.18475 9.95017 6.12875 9.67155 6.02002 9.41196C5.91128 9.15237 5.75198 8.91702 5.5514 8.7196C5.35081 8.52218 5.11295 8.36665 4.85167 8.26206C4.59038 8.15747 4.3109 8.10591 4.0295 8.11039C2.87051 8.12794 1.94006 9.07254 1.94006 10.2317C1.94006 11.3909 2.87051 12.3353 4.0295 12.3528ZM36.5178 10.5548C36.7987 10.5584 37.0775 10.5062 37.3381 10.4012C37.5986 10.2962 37.8357 10.1405 38.0356 9.94314C38.2355 9.74577 38.3942 9.51066 38.5025 9.25146C38.6109 8.99227 38.6666 8.71414 38.6666 8.43322C38.6665 8.1523 38.6107 7.87419 38.5023 7.61502C38.394 7.35585 38.2352 7.12078 38.0352 6.92346C37.8353 6.72615 37.5981 6.5705 37.3376 6.46557C37.077 6.36063 36.7982 6.30849 36.5173 6.31218C35.3583 6.32973 34.428 7.27451 34.428 8.43367C34.4282 9.59284 35.3588 10.5374 36.5178 10.5548Z" fill="#FF598B"/>
<path d="M38.2393 37.8084C38.5208 37.8129 38.8002 37.7613 39.0615 37.6566C39.3228 37.552 39.5606 37.3965 39.7612 37.199C39.9617 37.0016 40.121 36.7662 40.2297 36.5066C40.3384 36.247 40.3944 35.9684 40.3943 35.6869C40.3943 35.4055 40.3383 35.1269 40.2295 34.8673C40.1207 34.6077 39.9614 34.3724 39.7608 34.175C39.5602 33.9776 39.3223 33.8221 39.061 33.7175C38.7997 33.613 38.5202 33.5615 38.2388 33.566C37.0798 33.5835 36.1496 34.5283 36.1497 35.6875C36.1499 36.8466 37.0804 37.791 38.2393 37.8084ZM12.6935 4.24281C12.9744 4.24646 13.2532 4.19428 13.5138 4.08931C13.7744 3.98435 14.0115 3.82867 14.2114 3.63133C14.4113 3.43398 14.5701 3.1989 14.6784 2.93972C14.7868 2.68053 14.8426 2.40241 14.8426 2.12149C14.8426 1.84057 14.7868 1.56245 14.6784 1.30327C14.5701 1.04409 14.4113 0.809 14.2114 0.611656C14.0115 0.414312 13.7744 0.258638 13.5138 0.15367C13.2532 0.0487018 12.9744 -0.00347109 12.6935 0.000179118C11.5343 0.0179105 10.6041 0.962328 10.6041 2.12149C10.6041 3.28066 11.5343 4.22525 12.6935 4.24281Z" fill="#FFCD59"/>
<path d="M25.2439 18.9743C24.9923 18.9743 24.744 18.9169 24.5179 18.8066C24.2918 18.6963 24.0937 18.5359 23.9388 18.3377C23.7839 18.1395 23.6762 17.9086 23.6238 17.6625C23.5715 17.4164 23.5758 17.1616 23.6366 16.9175C23.7028 16.6521 23.7569 16.3856 23.7976 16.1196C23.3005 16.3248 22.771 16.4403 22.2336 16.4606C21.2702 16.4973 20.4077 16.3349 19.6725 15.9788C18.952 15.6336 18.352 15.0796 17.9505 14.3889C17.1598 13.0184 17.228 11.2155 18.1232 9.79576C18.9766 8.4403 20.4222 7.70669 21.9893 7.82651C23.1965 7.9209 24.2545 8.37296 25.1018 9.14866C25.2562 8.71319 25.4039 8.24734 25.5448 7.7511C26.4104 4.69594 26.6962 1.62806 26.6985 1.59707C26.7181 1.38053 26.7802 1.16996 26.8812 0.97741C26.9821 0.784857 27.1201 0.614092 27.2871 0.474873C27.4541 0.335654 27.6469 0.230711 27.8545 0.16604C28.0621 0.101369 28.2804 0.078238 28.4969 0.0979694C28.9342 0.137959 29.3377 0.349889 29.6188 0.687196C29.8999 1.0245 30.0355 1.4596 29.996 1.89689C29.984 2.03427 29.6794 5.30525 28.7301 8.6554C28.2508 10.347 27.6845 11.7765 27.043 12.9177C27.0902 13.1721 27.1279 13.4331 27.156 13.7008C27.2896 14.9923 27.1832 16.3827 26.849 17.7208C26.759 18.0785 26.5523 18.396 26.2616 18.623C25.9708 18.85 25.6127 18.9738 25.2439 18.9743ZM21.6397 11.1245C21.4685 11.1245 21.1669 11.1747 20.924 11.5598C20.6916 11.9287 20.6461 12.4325 20.8187 12.7318C21.0483 13.13 21.7239 13.1647 22.1065 13.1502C22.5406 13.1337 22.9855 12.8615 23.4208 12.3654C23.3483 12.2135 23.2626 12.0684 23.1646 11.9316C22.8052 11.4324 22.3502 11.1772 21.7322 11.1288C21.7089 11.1274 21.6775 11.1245 21.6397 11.1245Z" fill="#59B2FF"/>
<path d="M20.4825 23.5107C13.6151 18.0974 6.43717 15.7521 4.45018 18.2726C4.26322 18.5123 4.12581 18.7868 4.04594 19.0802C4.03377 19.1158 4.02443 19.1523 4.018 19.1894V19.1937C3.99138 19.3068 3.9715 19.4212 3.95836 19.5371L0.070362 42.3009C-0.552384 45.9568 3.06678 48.8839 6.51221 47.5116L27.5966 39.1101C27.9684 38.9622 28.8834 38.397 29.1338 38.085C29.2002 38.02 29.2621 37.9512 29.3196 37.8784C31.3062 35.3575 27.3494 28.9254 20.4825 23.5101V23.5107Z" fill="#FFCD59"/>
<path d="M29.3173 37.8795C31.3053 35.3577 27.35 28.9243 20.4826 23.5107C13.6152 18.0969 6.43633 15.7526 4.44845 18.2744C2.46057 20.7962 6.41555 27.2296 13.283 32.6432C20.1504 38.057 27.3292 40.4013 29.3173 37.8795Z" fill="#FFCD59"/>
<path d="M28.1183 36.4109C29.7496 34.3411 26.1561 28.7876 20.0914 24.0068C14.0268 19.2256 7.78748 17.0278 6.15638 19.097C4.52474 21.1667 8.11829 26.7202 14.1829 31.5011C20.2474 36.2823 26.4869 38.4806 28.1183 36.4109Z" fill="#FFCD59"/>
<path d="M21.2302 25.9795C21.5111 25.9831 21.7899 25.9309 22.0505 25.826C22.311 25.721 22.5482 25.5653 22.7481 25.368C22.948 25.1706 23.1068 24.9356 23.2151 24.6764C23.3234 24.4172 23.3792 24.1391 23.3792 23.8582C23.3792 23.5772 23.3234 23.2991 23.2151 23.0399C23.1068 22.7807 22.948 22.5457 22.7481 22.3483C22.5482 22.151 22.311 21.9953 22.0505 21.8903C21.7899 21.7854 21.5111 21.7332 21.2302 21.7368C20.0712 21.7544 19.1407 22.699 19.1407 23.8582C19.1407 25.0173 20.0712 25.9619 21.2302 25.9795Z" fill="#59B2FF"/>
<path d="M32.6708 21.852L32.6864 21.8346C32.7057 21.8139 32.7415 21.7755 32.7931 21.7234C32.9538 21.5636 33.1211 21.4106 33.2946 21.2649C33.9322 20.7312 34.6289 20.2727 35.3711 19.8983C37.1851 18.9804 39.886 18.2314 43.4282 19.0481C44.4926 19.2935 45.5541 18.6297 45.7997 17.5655C46.0451 16.5013 45.3813 15.4395 44.3171 15.1942C39.7316 14.1369 36.0859 15.1035 33.5848 16.3702C32.5692 16.8826 31.6162 17.5106 30.7447 18.2416C30.4832 18.4614 30.2313 18.6924 29.9898 18.934C29.8961 19.0282 29.8047 19.1246 29.7157 19.2233L29.6942 19.2475L29.6867 19.2561L29.6831 19.26L29.6819 19.2614C29.6814 19.2623 29.6803 19.2632 31.1794 20.5528L29.6803 19.2632C28.9859 20.091 29.0842 21.3229 29.9011 22.03C30.718 22.7371 31.9511 22.658 32.6708 21.852ZM13.08 7.74591C12.9324 7.51168 12.7402 7.30885 12.5141 7.14905C12.2881 6.98925 12.0327 6.87562 11.7627 6.81466C11.4927 6.7537 11.2133 6.74661 10.9405 6.79381C10.6677 6.841 10.407 6.94154 10.1731 7.08967C9.93912 7.23735 9.73652 7.42969 9.57688 7.65569C9.41725 7.88169 9.30371 8.13694 9.24275 8.40684C9.18179 8.67673 9.17461 8.956 9.22161 9.22867C9.26862 9.50135 9.36889 9.76209 9.51669 9.996C9.59317 10.1183 11.1605 12.6575 11.4825 16.135C11.8103 19.6682 10.7722 22.9159 8.39246 25.8281C9.19377 26.8465 10.1581 27.905 11.2596 28.9637C12.7837 27.2024 13.9305 25.3096 14.684 23.307C15.6109 20.8433 15.9388 18.2309 15.6593 15.5432C15.2138 11.2673 13.3536 8.18024 13.08 7.74591Z" fill="#FF598B"/>
<path d="M39.4463 28.0438C40.5213 28.322 41.2811 28.6252 41.6094 28.7663C41.9931 29.0018 42.4417 29.1092 42.8905 29.0732C43.3392 29.0371 43.7649 28.8594 44.1061 28.5657C44.3321 28.3704 44.5144 28.1297 44.6412 27.8592C44.7679 27.5887 44.8362 27.2945 44.8417 26.9959C44.8492 26.5458 44.7134 26.1049 44.4539 25.737C44.1944 25.3692 43.8247 25.0933 43.3981 24.9494C42.3919 24.5026 38.5793 22.9936 33.5395 23.2617C30.1471 23.4421 26.8848 24.3817 23.844 26.0572C20.9647 27.6441 18.2911 29.8922 15.8638 32.7602C17.0219 33.5842 18.2282 34.3382 19.4764 35.0181C23.5746 30.3471 28.3032 27.8151 33.5719 27.4805C35.5475 27.3606 37.5295 27.5507 39.4463 28.0438Z" fill="#59B2FF"/>
</g>
<defs>
<clipPath id="clip0_2128_1480">
<rect width="45.8507" height="48" fill="white"/>
</clipPath>
</defs>
</svg>
